<svg width="287" height="259" viewBox="0 0 287 259" fill="none" xmlns="http://www.w3.org/2000/svg">
<path d="M197.232 123.821L198.198 123.487L198.241 122.466C198.511 115.981 197.706 109.343 195.692 102.789C186.174 71.8134 153.348 54.4184 122.372 63.9365C91.3966 73.4546 74.002 106.281 83.5201 137.256L83.5201 137.256C85.9572 145.187 89.9262 152.227 94.9997 158.156L95.664 158.932L96.6295 158.598L197.232 123.821Z" fill="#A8E7EF" stroke="white" stroke-width="3"/>
<path d="M198.196 123.489L197.231 123.822L182.238 129.005L180.158 129.724L180.249 127.526C180.504 121.374 179.741 115.075 177.83 108.855L177.83 108.855C169.377 81.3306 141.524 65.105 113.88 70.5745L112.907 67.7666C115.895 66.2435 119.054 64.9538 122.375 63.9344L198.196 123.489ZM198.196 123.489L198.239 122.468M198.196 123.489L198.239 122.468M198.239 122.468C198.512 115.98 197.707 109.34 195.691 102.79M198.239 122.468L195.691 102.79M195.691 102.79C186.175 71.8132 153.347 54.4203 122.375 63.9343L195.691 102.79Z" fill="#70D9E6" stroke="white" stroke-width="3"/>
<path d="M251.033 90.9905C248.989 85.0673 243.785 80.7557 236.544 77.9005C229.296 75.0427 219.817 73.5597 208.817 73.3945C186.804 73.0638 158.362 78.007 128.674 88.2527C98.9862 98.4983 73.5493 112.149 56.4258 125.986C47.8692 132.901 41.3223 139.914 37.3798 146.634C33.441 153.348 32.004 159.951 34.0482 165.874C36.0923 171.797 41.2961 176.109 48.5373 178.964C55.785 181.822 65.2642 183.305 76.264 183.47C98.2769 183.801 126.719 178.858 156.407 168.612C186.095 158.366 211.532 144.715 228.656 130.878C237.212 123.964 243.759 116.95 247.702 110.231C251.64 103.517 253.077 96.9137 251.033 90.9905Z" fill="#1C96F9" stroke="white" stroke-width="3"/>
<path d="M68.1218 145.12C73.4871 142.044 75.3435 135.202 72.268 129.836C69.1925 124.471 62.3499 122.614 56.9845 125.69C51.6192 128.765 49.7629 135.608 52.8383 140.973C55.9138 146.339 62.7564 148.195 68.1218 145.12Z" fill="#1785F8" stroke="white" stroke-width="3"/>
<path d="M156.379 168.547L155.99 167.423L156.379 168.547C186.073 158.281 211.512 144.612 228.634 130.761C237.19 123.84 243.735 116.82 247.675 110.096C251.611 103.379 253.045 96.7726 250.997 90.8488C248.726 84.2781 242.574 79.6958 234.038 76.8757C225.479 74.0477 214.258 72.8928 201.319 73.355L201.265 76.3502C210.21 76.9917 217.667 78.6517 223.247 81.2611C228.822 83.8681 232.398 87.3572 233.871 91.6167C235.524 96.3992 234.49 102.064 230.795 108.37C227.104 114.669 220.854 121.425 212.455 128.219C195.668 141.798 170.56 155.318 141.107 165.499C114.853 174.575 89.672 179.435 69.2142 180.155L69.1585 183.15C91.9776 184.804 123.419 179.94 156.379 168.547Z" fill="#1785F8" stroke="white" stroke-width="3"/>
<path d="M213.618 124.833C212.436 121.41 209.216 119.154 204.996 117.794C200.746 116.425 195.185 115.857 188.752 116.016C175.868 116.335 159.137 119.582 141.579 125.642C124.022 131.701 108.849 139.465 98.5106 147.159C93.3488 151.001 89.3213 154.878 86.8206 158.578C84.338 162.251 83.1941 166.013 84.3752 169.435C85.5564 172.858 88.777 175.114 92.9965 176.473C97.2468 177.843 102.808 178.411 109.241 178.252C122.124 177.933 138.856 174.686 156.414 168.626C173.971 162.567 189.144 154.803 199.482 147.109C204.644 143.267 208.671 139.39 211.172 135.69C213.655 132.017 214.799 128.255 213.618 124.833Z" fill="#D4F2F6" stroke="white" stroke-width="3"/>
<path d="M71.5564 157.426C70.0142 152.958 64.775 151.08 60.1502 152.676C55.5254 154.272 52.5595 158.981 54.1017 163.45C55.6439 167.919 60.8831 169.797 65.5079 168.201C70.1327 166.604 73.0987 161.895 71.5564 157.426Z" fill="#D4F2F6" stroke="white" stroke-width="3"/>
<path d="M100.539 125.867C98.9972 121.398 93.7581 119.521 89.1333 121.117C84.5084 122.713 81.5425 127.422 83.0847 131.891C84.627 136.36 89.8661 138.238 94.4909 136.641C99.1157 135.045 102.082 130.336 100.539 125.867Z" fill="#D4F2F6" stroke="white" stroke-width="3"/>
<path d="M144.595 106.089C143.053 101.62 137.814 99.7421 133.189 101.338C128.564 102.934 125.598 107.643 127.141 112.112C128.683 116.581 133.922 118.459 138.547 116.863C143.172 115.267 146.138 110.557 144.595 106.089Z" fill="#D4F2F6" stroke="white" stroke-width="3"/>
<path d="M233.751 101.439C232.209 96.9698 226.97 95.0922 222.345 96.6883C217.72 98.2843 214.754 102.994 216.297 107.462C217.839 111.931 223.078 113.809 227.703 112.213C232.328 110.617 235.293 105.907 233.751 101.439Z" fill="#D4F2F6" stroke="white" stroke-width="3"/>
<path d="M191.471 94.4787C189.929 90.0098 184.69 88.1322 180.065 89.7283C175.44 91.3244 172.474 96.0336 174.016 100.502C175.558 104.971 180.798 106.849 185.422 105.253C190.047 103.657 193.013 98.9475 191.471 94.4787Z" fill="#D4F2F6" stroke="white" stroke-width="3"/>
<path d="M52.5379 90.0396L51.5367 89.768L51.5364 89.7679C48.9415 89.0644 46.2683 90.597 45.5636 93.1914L45.5636 93.1914L45.5634 93.1921C44.8599 95.7869 46.3924 98.4603 48.9869 99.1646L48.9871 99.1647L49.9883 99.4363L49.7167 100.438C49.0128 103.032 50.5457 105.706 53.1401 106.41L53.1404 106.41C54.4377 106.762 55.7571 106.554 56.836 105.935C57.9149 105.317 58.7614 104.283 59.1135 102.987L59.1136 102.986L59.3852 101.985L60.3864 102.257C61.6838 102.609 63.0035 102.4 64.0821 101.782C65.161 101.163 66.0074 100.13 66.3595 98.8335L66.3597 98.8327C67.0631 96.238 65.5307 93.5645 62.9362 92.8602L62.9359 92.8601L61.9347 92.5885L62.2064 91.5873L62.2064 91.5871C62.9099 88.9925 61.3773 86.3184 58.7827 85.6145C56.1881 84.9106 53.5145 86.4429 52.8096 89.0379L52.8095 89.0384L52.5379 90.0396Z" fill="#64B9FC" stroke="white" stroke-width="3"/>
<path d="M168.961 40.9251L168.961 40.9246C169.665 38.3299 168.132 35.6561 165.538 34.9518L165.537 34.9517L164.536 34.6801L164.808 33.6789C165.512 31.0843 163.979 28.4105 161.384 27.7062L161.384 27.706C158.789 27.0025 156.116 28.5351 155.411 31.1295L155.411 31.13L155.139 32.1306L154.139 31.8591L154.139 31.8591C151.544 31.1556 148.871 32.6882 148.166 35.2826L148.166 35.283C147.462 37.8777 148.995 40.5515 151.589 41.2558L151.589 41.2559L152.591 41.5275L152.319 42.5287C151.615 45.1233 153.148 47.7972 155.742 48.5014L155.743 48.5015C157.04 48.8535 158.36 48.6448 159.438 48.0266C160.517 47.4081 161.364 46.3743 161.716 45.0781L161.716 45.0776L161.987 44.077L162.988 44.3485C164.285 44.7004 165.605 44.4917 166.684 43.8735C167.762 43.2551 168.609 42.2213 168.961 40.9251Z" fill="#64B9FC" stroke="white" stroke-width="3"/>
<path d="M243.728 154.567L243.728 154.567C244.431 151.972 242.899 149.299 240.304 148.594L240.304 148.594C237.709 147.891 235.036 149.423 234.331 152.018L234.331 152.018L234.059 153.019L233.059 152.747C230.464 152.044 227.79 153.576 227.086 156.171L227.085 156.171C226.382 158.766 227.914 161.44 230.509 162.144L230.509 162.144L231.51 162.416L231.239 163.417L231.239 163.417C230.535 166.012 232.068 168.685 234.662 169.39L234.662 169.39C235.96 169.742 237.28 169.533 238.358 168.915C239.437 168.296 240.283 167.263 240.635 165.966L240.636 165.966L240.907 164.965L241.908 165.237C243.205 165.589 244.524 165.38 245.603 164.762C246.682 164.143 247.529 163.11 247.881 161.813L247.881 161.813C248.585 159.218 247.052 156.544 244.457 155.84L244.457 155.84L243.456 155.568L243.728 154.567Z" fill="#A8E7EF" stroke="white" stroke-width="3"/>
<path d="M196.633 62.3945C201.998 59.319 203.855 52.4764 200.779 47.1111C197.704 41.7457 190.861 39.8894 185.496 42.9648C180.13 46.0403 178.274 52.8829 181.349 58.2483C184.425 63.6137 191.268 65.47 196.633 62.3945Z" fill="#A8E7EF" stroke="white" stroke-width="3"/>
<path d="M187.188 63.8183L189.934 61.2755C192.299 59.0852 192.929 55.4809 191.259 52.567C189.59 49.6554 186.162 48.3733 183.079 49.3067L179.485 50.3945L181.34 47.13C182.295 45.4482 183.7 43.9941 185.496 42.9645L187.188 63.8183ZM187.188 63.8183L190.93 63.8759M187.188 63.8183L190.93 63.8759M190.93 63.8759C192.869 63.9057 194.839 63.4249 196.634 62.3959C201.998 59.3214 203.854 52.477 200.778 47.1104M190.93 63.8759L200.778 47.1104M200.778 47.1104C197.704 41.747 190.859 39.89 185.497 42.9645L200.778 47.1104Z" fill="#70D9E6" stroke="white" stroke-width="3"/>
<path d="M64.2119 138.299C69.5772 135.223 71.4335 128.381 68.3581 123.015C65.2826 117.65 58.44 115.794 53.0746 118.869C47.7093 121.945 45.8529 128.787 48.9284 134.153C52.0039 139.518 58.8465 141.374 64.2119 138.299Z" fill="#BCEA73" stroke="white" stroke-width="3"/>
<path d="M54.7669 139.723L57.5127 137.18C59.8778 134.99 60.5078 131.386 58.8375 128.472C57.1686 125.56 53.7412 124.278 50.6576 125.211L47.0641 126.299L48.9188 123.035C49.8744 121.353 51.2795 119.899 53.0755 118.869L54.7669 139.723ZM54.7669 139.723L58.5088 139.781M54.7669 139.723L58.5088 139.781M58.5088 139.781C60.4482 139.81 62.4182 139.33 64.2133 138.301C69.5769 135.226 71.4331 128.382 68.3569 123.015M58.5088 139.781L68.3569 123.015M68.3569 123.015C65.2825 117.652 58.4383 115.795 53.0756 118.869L68.3569 123.015Z" fill="#99D53B" stroke="white" stroke-width="3"/>
</svg>
