<svg width="60" height="80" viewBox="0 0 60 80" fill="none" xmlns="http://www.w3.org/2000/svg">
<path d="M46.5344 79.6329C38.6095 77.2377 25.331 68.8307 20.5424 65.6587C19.6226 65.0493 19.4985 63.7186 20.3056 63.1062C22.4437 61.4855 26.4078 58.5639 30.7723 55.7658C30.7723 55.7658 57.1851 50.561 58.3932 63.7125C59.6013 76.864 46.5344 79.6329 46.5344 79.6329Z" fill="#A9DF69"/>
<path d="M38.9143 0.653715C31.4318 3.07556 19.9972 11.3904 15.7928 14.578C14.9852 15.1904 15.1055 16.5212 16.0249 17.1305C18.4601 18.7434 22.9596 21.6503 27.8366 24.4324C27.8366 24.4324 55.1973 29.5442 53.9892 16.3926C52.7811 3.24092 38.9143 0.653715 38.9143 0.653715Z" fill="#A9DF69"/>
<path d="M38.7116 54.344C38.5845 54.5041 36.7954 56.0978 36.6581 56.2395C29.3554 63.7919 8.30674 46.0046 2.96073 41.2553C2.27509 40.646 2.18018 39.6073 2.75375 38.9963C7.24534 34.2136 25.1448 16.2499 33.7915 23.9898C33.9191 24.1036 35.9743 25.7533 36.0977 25.8786L38.7116 54.344Z" fill="#94D744"/>
</svg>
