<svg width="174" height="210" viewBox="0 0 174 210" fill="none" xmlns="http://www.w3.org/2000/svg">
<path d="M2.3093 194.116C2.59432 194.283 2.90305 194.413 3.24775 194.587C3.24775 194.587 3.88589 195.049 4.69877 194.947C4.71595 194.768 4.77292 194.593 4.81381 194.377C4.81954 194.317 4.83099 194.198 4.88223 194.083C5.62121 191.408 10.047 177.323 15.538 160.093C21.8903 139.96 29.7246 115.48 34.774 99.7117C37.8789 89.9691 39.9213 83.5515 39.9213 83.5515C40.4822 82.1023 40.8913 80.9792 41.4064 80.0065C41.8466 79.187 42.3748 78.4963 43.0877 77.7631C43.4659 77.3786 46.3296 74.9482 50.3999 71.4514C63.099 60.687 87.5682 40.0511 87.5682 40.0511C87.5682 40.0511 116.023 15.5495 120.89 12.3296C120.792 11.8793 120.522 11.3523 120.029 11.0444C118.973 10.3415 117.3 9.15851 116.03 9.41725C114.272 9.74925 82.4294 36.9115 82.4294 36.9115C82.4294 36.9115 39.5453 73.0534 37.9489 74.6235C37.2834 75.281 36.7572 75.952 36.3625 76.7157L36.3151 76.7913C35.7583 77.78 35.3274 78.921 34.7825 80.4119C34.7825 80.4119 2.00941 183.244 0.780823 188.297C0.690598 188.609 0.622175 188.903 0.575554 189.179C-0.122347 192.679 0.773293 193.387 2.29132 194.094L2.3093 194.116Z" fill="#212029"/>
<path d="M4.69898 194.946C4.8979 194.966 5.08457 194.903 5.31484 194.805C5.48162 194.741 5.65221 194.637 5.801 194.551C6.43595 194.212 7.01313 193.846 7.81406 193.242C8.05388 193.044 8.33348 192.851 8.6605 192.582C10.2245 191.349 17.5332 184.656 17.5332 184.656L45.4551 159.221L46.5528 158.245L46.8144 158.029L97.5383 74.3796L105.1 61.9189L105.102 61.899C105.102 61.899 116.249 28.8589 118.049 23.5003C119.566 18.9964 121.005 14.2644 121.074 13.5495C121.074 13.5495 121.125 13.0133 120.926 12.3729C116.059 15.5927 87.6044 40.0944 87.6044 40.0944C87.6044 40.0944 63.1352 60.7303 50.4361 71.4946C46.3657 74.9915 43.5021 77.4219 43.1239 77.8064C42.4109 78.5395 41.8828 79.2303 41.4426 80.0498C40.9275 81.0224 40.5184 82.1455 39.9575 83.5948C39.9575 83.5948 37.9151 90.0123 34.8102 99.755C29.7627 115.504 21.9284 139.984 15.5742 160.137C10.0832 177.366 5.65739 191.451 4.91842 194.126C4.88707 194.243 4.85572 194.36 4.84999 194.42C4.79112 194.615 4.77202 194.813 4.73495 194.99L4.69898 194.946Z" fill="#38353E"/>
<path d="M4.69898 194.946C4.8979 194.966 5.08457 194.903 5.31484 194.805C5.48162 194.741 5.65221 194.637 5.801 194.551C6.43595 194.212 7.01313 193.846 7.81406 193.242C8.05388 193.044 8.33348 192.851 8.6605 192.582C10.2245 191.349 17.5332 184.656 17.5332 184.656L45.4551 159.221L46.5528 158.245L46.8144 158.029L97.5383 74.3796L105.1 61.9189L105.102 61.899C105.102 61.899 116.249 28.8589 118.049 23.5003C119.566 18.9964 121.005 14.2644 121.074 13.5495C121.074 13.5495 121.125 13.0133 120.926 12.3729C116.059 15.5927 87.6044 40.0944 87.6044 40.0944C87.6044 40.0944 63.1352 60.7303 50.4361 71.4946C46.3657 74.9915 43.5021 77.4219 43.1239 77.8064C42.4109 78.5395 41.8828 79.2303 41.4426 80.0498C40.9275 81.0224 40.5184 82.1455 39.9575 83.5948C39.9575 83.5948 37.9151 90.0123 34.8102 99.755C29.7627 115.504 21.9284 139.984 15.5742 160.137C10.0832 177.366 5.65739 191.451 4.91842 194.126C4.88707 194.243 4.85572 194.36 4.84999 194.42C4.79112 194.615 4.77202 194.813 4.73495 194.99L4.69898 194.946Z" fill="#31303B"/>
<path d="M79.8099 180.262C87.0849 184.569 106.005 165.063 122.208 137.9C137.854 111.726 145.29 88.05 139.296 82.5233C139.097 82.3037 138.835 82.0982 138.588 81.9542C138.341 81.8102 138.072 81.6841 137.817 81.6195L137.913 81.6688C130.193 79.0627 111.986 97.2141 96.316 123.426C89.8056 134.344 84.7296 144.96 81.4433 154.084C81.412 154.201 81.3627 154.296 81.3114 154.412C77.549 164.312 76.0283 172.403 77.6713 177.03C77.6713 177.03 77.6694 177.05 77.6675 177.07C77.9622 178.18 78.457 179.09 79.1178 179.734L78.9464 179.638C79.2218 179.905 79.4832 180.11 79.7881 180.28L79.8099 180.262Z" fill="#FACE2C"/>
<g style="mix-blend-mode:multiply">
<path d="M82.4252 174.982C87.9446 178.339 104.526 161.233 119.467 136.755C134.408 112.277 142.059 89.7037 136.5 86.3432C134.526 85.1514 131.14 86.5494 126.956 89.9753C119.378 96.1212 109.063 108.818 99.458 124.57C89.4736 140.927 82.7628 156.435 81.0488 165.911C80.2145 170.621 80.6053 173.865 82.4252 174.982Z" fill="white"/>
</g>
<path d="M69.0113 173.552C66.9206 172.329 66.1328 169.247 66.4713 164.89C66.4828 164.771 66.4923 164.672 66.5057 164.533C67.4265 154.119 74.4515 136.596 85.2966 118.178C85.4939 117.796 85.7073 117.456 85.9245 117.076C86.2129 116.583 86.5192 116.111 86.7877 115.616C87.7399 114.064 88.6921 112.512 89.6605 111.002C100.891 93.5824 113.092 80.4854 121.288 76.4632C123.332 75.4572 125.12 75.0279 126.587 75.229C126.805 75.25 127 75.3088 127.194 75.3875C127.53 75.4399 127.819 75.5679 128.104 75.7356L123.434 72.9417L107.699 63.4922L104.245 61.4165L94.4103 55.5406C94.4103 55.5406 94.3763 55.4772 94.3564 55.4753C94.3365 55.4733 94.3166 55.4714 94.2967 55.4695L94.0335 55.2839L94.0277 55.3435C93.452 55.0676 92.8667 54.8911 92.2141 54.7883C92.2141 54.7883 92.1942 54.7864 92.2121 54.8081C90.3717 54.531 88.1982 55.0035 85.7969 56.1755C77.2131 60.2606 65.6363 72.7162 54.8161 89.4133C53.9208 90.7903 53.0615 92.2108 52.1624 93.6275C51.71 94.3657 51.2537 95.1436 50.7994 95.9016L50.3413 96.6993C39.5512 114.963 32.6391 132.356 32.1992 143.197C32.1763 143.435 32.1694 143.715 32.1645 143.975C32.1553 146.159 32.3936 148.066 32.9665 149.624C33.6037 151.349 34.6032 152.647 36.0302 153.466L37.7185 154.49L38.3623 154.893L64.8213 170.985L68.3873 173.152L69.0331 173.534L69.0113 173.552Z" fill="#42424E"/>
<path d="M81.0485 165.911C88.6141 160.305 99.1974 147.534 108.97 131.497C119.141 114.878 125.755 99.1196 126.955 89.9755C119.378 96.1215 109.063 108.819 99.4577 124.57C89.4733 140.927 82.7625 156.436 81.0485 165.911Z" fill="#100E11"/>
<path d="M78.9502 179.598L79.1594 179.719C78.4987 179.074 78.0039 178.165 77.7092 177.054C77.6893 177.052 77.713 177.014 77.713 177.014C76.2713 173.008 77.2452 166.427 79.9548 158.29C80.3773 157.028 80.8434 155.73 81.3531 154.396C81.3844 154.279 81.4338 154.183 81.4651 154.066C81.5989 153.718 81.7148 153.348 81.8685 153.002C84.3545 146.147 87.941 138.494 92.2619 130.512C92.8007 129.502 93.3831 128.455 93.9637 127.429C94.7339 126.1 95.5259 124.753 96.3159 123.426C105.477 108.113 115.501 95.5281 123.809 88.2499C127.057 85.3754 130.041 83.3575 132.594 82.2801C134.667 81.3971 136.495 81.1721 137.915 81.6493L137.763 81.5545L131.999 78.0341L128.166 75.7215C128.166 75.7215 128.146 75.7196 128.108 75.6959C127.877 75.5935 127.608 75.4674 127.353 75.4028C127.295 75.3772 127.254 75.3933 127.218 75.3497C127.024 75.271 126.827 75.2321 126.611 75.1912C125.242 75.0195 123.561 75.379 121.669 76.2594C119.208 77.4257 116.327 79.4135 113.232 82.1623C104.94 89.4822 94.9259 101.968 85.9485 117.038C85.184 118.308 84.4433 119.539 83.7584 120.816C83.1323 121.898 82.5262 122.982 81.9656 124.011C77.6542 131.894 74.0555 139.464 71.4539 146.269C70.7649 148.007 70.1451 149.651 69.6267 151.284C65.9382 162.294 65.2293 170.503 68.5666 173.169C68.7361 173.285 68.8658 173.398 69.0353 173.514L69.095 173.52L74.2896 176.705L78.972 179.58L78.9502 179.598Z" fill="#FACE2C"/>
<mask id="mask0_52_3700" style="mask-type:luminance" maskUnits="userSpaceOnUse" x="72" y="28" width="49" height="18">
<path d="M72.8411 44.9688L77.3635 41.1546L78.4555 40.2375C78.5997 39.9908 78.7599 39.7857 78.9439 39.5429C79.3497 39.0808 79.9525 38.6578 80.8556 38.2435C81.4867 37.9434 82.2969 37.6606 83.288 37.3751C83.6793 37.2724 84.2554 37.1273 84.9925 36.9778C85.074 36.9655 85.1176 36.9296 85.1753 36.9552C90.4006 35.8542 102.697 33.8698 106.291 33.4537C110.473 32.9738 120.689 31.531 120.689 31.531L120.704 29.2877L120.712 28.1661L115.686 28.8653C115.686 28.8653 93.1744 31.8519 86.3659 33.3419C81.8342 34.3292 79.6833 34.9842 78.1308 36.0976C77.3574 36.6245 76.7753 37.25 76.1106 38.108C75.9721 38.2951 75.8119 38.5002 75.6914 38.7091C74.7345 40.1002 73.9659 41.8301 73.5018 43.1083C73.0766 44.1897 72.8571 45.0104 72.8571 45.0104L72.8411 44.9688Z" fill="white"/>
</mask>
<g mask="url(#mask0_52_3700)">
<path d="M72.8411 44.9688L77.3635 41.1546L78.4555 40.2375C78.5997 39.9908 78.7599 39.7857 78.9439 39.5429C79.3497 39.0808 79.9525 38.6578 80.8556 38.2435C81.4867 37.9434 82.2969 37.6606 83.288 37.3751C83.6793 37.2724 84.2554 37.1273 84.9925 36.9778C85.074 36.9655 85.1176 36.9296 85.1753 36.9552C90.4006 35.8542 102.697 33.8698 106.291 33.4537C110.473 32.9738 120.689 31.531 120.689 31.531L120.704 29.2877L120.712 28.1661L115.686 28.8653C115.686 28.8653 93.1744 31.8519 86.3659 33.3419C81.8342 34.3292 79.6833 34.9842 78.1308 36.0976C77.3574 36.6245 76.7753 37.25 76.1106 38.108C75.9721 38.2951 75.8119 38.5002 75.6914 38.7091C74.7345 40.1002 73.9659 41.8301 73.5018 43.1083C73.0766 44.1897 72.8571 45.0104 72.8571 45.0104L72.8411 44.9688Z" fill="#FED425"/>
</g>
<path d="M125.12 35.985C128.369 36.4376 131.414 33.7842 131.93 30.086C132.05 29.2557 132.031 28.4121 131.825 27.6307C131.355 25.0001 129.444 22.9524 126.949 22.5923C125.722 22.4142 124.488 22.7164 123.427 23.3159C121.725 24.3147 120.44 26.1953 120.139 28.4913C119.622 32.1896 121.867 35.572 125.12 35.985Z" fill="#FED425"/>
<mask id="mask1_52_3700" style="mask-type:luminance" maskUnits="userSpaceOnUse" x="128" y="16" width="45" height="17">
<path d="M130.239 31.1858L155.049 32.2684L159.86 32.1297C159.86 32.1297 167.555 31.8673 168.081 31.8178C168.608 31.7682 169.448 31.8088 170.146 31.435C170.866 31.0433 171.902 29.8802 172.403 26.9621C172.418 26.8033 172.433 26.6444 172.467 26.5073C172.884 23.8417 172.74 22.2044 172.279 20.9376C171.765 19.6054 170.818 17.5503 169.552 16.7271C168.932 16.2867 168.26 16.1819 167.592 16.238C167.51 16.2502 167.467 16.2861 167.427 16.2823C166.882 16.3101 166.326 16.457 165.774 16.5642C164.548 16.7871 158.136 18.5356 158.136 18.5356C158.136 18.5356 154.801 19.3975 153.695 19.8323C152.593 20.2274 149.995 20.9396 147.232 21.6962C144.469 22.4527 140.508 23.3545 138.839 23.7954C137.172 24.2164 132.665 25.3664 132.665 25.3664C132.665 25.3664 130.494 25.819 129.844 26.0973L129.805 26.0935C129.805 26.0935 129.678 26.1614 129.636 26.1775C129.333 26.4089 129.026 27.3013 128.941 27.9746C128.91 28.0918 128.918 28.2129 128.911 28.2923C128.928 28.5345 129.014 28.683 129.089 28.7304L129.125 28.774C129.039 29.0462 130.237 31.2057 130.237 31.2057L130.239 31.1858Z" fill="white"/>
</mask>
<g mask="url(#mask1_52_3700)">
<path d="M130.239 31.1858L155.049 32.2684L159.86 32.1297C159.86 32.1297 167.555 31.8673 168.081 31.8178C168.608 31.7682 169.448 31.8088 170.146 31.435C170.866 31.0433 171.902 29.8802 172.403 26.9621C172.418 26.8033 172.433 26.6444 172.467 26.5073C172.884 23.8417 172.74 22.2044 172.279 20.9376C171.765 19.6054 170.818 17.5503 169.552 16.7271C168.932 16.2867 168.26 16.1819 167.592 16.238C167.51 16.2502 167.467 16.2861 167.427 16.2823C166.882 16.3101 166.326 16.457 165.774 16.5642C164.548 16.7871 158.136 18.5356 158.136 18.5356C158.136 18.5356 154.801 19.3975 153.695 19.8323C152.593 20.2274 149.995 20.9396 147.232 21.6962C144.469 22.4527 140.508 23.3545 138.839 23.7954C137.172 24.2164 132.665 25.3664 132.665 25.3664C132.665 25.3664 130.494 25.819 129.844 26.0973L129.805 26.0935C129.805 26.0935 129.678 26.1614 129.636 26.1775C129.333 26.4089 129.026 27.3013 128.941 27.9746C128.91 28.0918 128.918 28.2129 128.911 28.2923C128.928 28.5345 129.014 28.683 129.089 28.7304L129.125 28.774C129.039 29.0462 130.237 31.2057 130.237 31.2057L130.239 31.1858Z" fill="#FED425"/>
<g style="mix-blend-mode:multiply">
<path d="M170.126 31.4331C170.847 31.0414 171.882 29.8783 172.383 26.9602C172.399 26.8014 172.414 26.6425 172.447 26.5054C172.864 23.8398 172.72 22.2026 172.26 20.9357C171.745 19.6036 170.799 17.5484 169.533 16.7252C168.913 16.2848 168.24 16.1801 167.572 16.2361C167.491 16.2483 167.447 16.2842 167.407 16.2804L167.344 16.3144C167.344 16.3144 166.014 16.9882 165.323 18.7456C164.593 20.4992 164.792 22.6028 165.697 24.2531C166.124 25.0357 166.846 26.508 167.615 27.9047C168.482 29.5314 169.439 31.0664 170.106 31.4312L170.126 31.4331Z" fill="white"/>
</g>
</g>
<mask id="mask2_52_3700" style="mask-type:luminance" maskUnits="userSpaceOnUse" x="128" y="28" width="36" height="15">
<path d="M129.455 33.0748C129.455 33.0748 129.518 33.0408 129.614 33.0901C129.674 33.0958 129.733 33.1016 129.817 33.0695C130.153 33.1219 130.732 33.1575 131.406 33.2424C133.27 33.4817 134.983 33.6263 137.082 33.9283C138.485 34.1634 143.088 34.7262 144.701 35.0816C146.309 35.4768 149.015 35.9374 151.632 36.9105C154.23 37.8618 156.034 38.9371 158.377 40.4651C160.719 41.993 161.574 42.2956 162.268 42.3824C162.328 42.3881 162.367 42.392 162.387 42.3939C162.646 42.4187 162.872 42.3603 162.985 42.2309C163.303 42.061 163.411 41.7708 163.284 41.4179C163.105 40.7793 161.646 37.9935 161.172 37.2865C161.016 37.031 160.719 36.5616 160.371 36.007C160.021 35.4723 159.615 34.8921 159.301 34.401C159.017 34.0129 158.765 33.7081 158.596 33.5916C158.145 33.2677 156.27 32.3058 154.362 31.481C154.366 31.4413 154.304 31.4554 154.286 31.4336C153.746 31.2013 153.205 30.9889 152.721 30.8021C150.413 29.9589 147.434 29.412 144.913 29.1095C143.286 28.913 141.542 28.8856 140.538 28.8893C138.089 29.0947 134.364 29.418 134.306 29.3924C134.266 29.3886 129.474 29.7496 129.068 29.7908C129.028 29.7869 129.008 29.785 129.008 29.785C128.806 29.8056 128.726 29.798 128.648 29.7705C128.485 30.2157 128.888 30.4148 128.888 30.4148C128.888 30.4148 128.652 30.7729 128.784 31.4871C128.936 32.2032 129.433 33.0927 129.433 33.0927L129.455 33.0748Z" fill="white"/>
</mask>
<g mask="url(#mask2_52_3700)">
<path d="M129.455 33.0748C129.455 33.0748 129.518 33.0408 129.614 33.0901C129.674 33.0958 129.733 33.1016 129.817 33.0695C130.153 33.1219 130.732 33.1575 131.406 33.2424C133.27 33.4817 134.983 33.6263 137.082 33.9283C138.485 34.1634 143.088 34.7262 144.701 35.0816C146.309 35.4768 149.015 35.9374 151.632 36.9105C154.23 37.8618 156.034 38.9371 158.377 40.4651C160.719 41.993 161.574 42.2956 162.268 42.3824C162.328 42.3881 162.367 42.392 162.387 42.3939C162.646 42.4187 162.872 42.3603 162.985 42.2309C163.303 42.061 163.411 41.7708 163.284 41.4179C163.105 40.7793 161.646 37.9935 161.172 37.2865C161.016 37.031 160.719 36.5616 160.371 36.007C160.021 35.4723 159.615 34.8921 159.301 34.401C159.017 34.0129 158.765 33.7081 158.596 33.5916C158.145 33.2677 156.27 32.3058 154.362 31.481C154.366 31.4413 154.304 31.4554 154.286 31.4336C153.746 31.2013 153.205 30.9889 152.721 30.8021C150.413 29.9589 147.434 29.412 144.913 29.1095C143.286 28.913 141.542 28.8856 140.538 28.8893C138.089 29.0947 134.364 29.418 134.306 29.3924C134.266 29.3886 129.474 29.7496 129.068 29.7908C129.028 29.7869 129.008 29.785 129.008 29.785C128.806 29.8056 128.726 29.798 128.648 29.7705C128.485 30.2157 128.888 30.4148 128.888 30.4148C128.888 30.4148 128.652 30.7729 128.784 31.4871C128.936 32.2032 129.433 33.0927 129.433 33.0927L129.455 33.0748Z" fill="#FED425"/>
</g>
<mask id="mask3_52_3700" style="mask-type:luminance" maskUnits="userSpaceOnUse" x="129" y="14" width="37" height="13">
<path d="M129.638 26.1577C129.867 26.28 134.29 25.3824 136.914 24.6125C139.641 23.8124 147.883 21.8189 148.715 21.5181C149.543 21.257 152.623 20.3306 155.218 19.2372C157.789 18.1816 163.942 15.366 164.634 15.0518C165.345 14.7594 165.503 14.5742 165.348 14.5192C165.213 14.4661 162.779 15.5549 157.61 17.3227C152.463 19.0726 147.272 21.2792 142.493 22.5434C137.736 23.7896 129.786 25.8713 129.642 26.118L129.638 26.1577Z" fill="white"/>
</mask>
<g mask="url(#mask3_52_3700)">
<path d="M129.638 26.1577C129.867 26.28 134.29 25.3824 136.914 24.6125C139.641 23.8124 147.883 21.8189 148.715 21.5181C149.543 21.257 152.623 20.3306 155.218 19.2372C157.789 18.1816 163.942 15.366 164.634 15.0518C165.345 14.7594 165.503 14.5742 165.348 14.5192C165.213 14.4661 162.779 15.5549 157.61 17.3227C152.463 19.0726 147.272 21.2792 142.493 22.5434C137.736 23.7896 129.786 25.8713 129.642 26.118L129.638 26.1577Z" fill="#FED425"/>
</g>
<mask id="mask4_52_3700" style="mask-type:luminance" maskUnits="userSpaceOnUse" x="129" y="33" width="37" height="12">
<path d="M129.11 33.9434C129.11 33.9434 129.806 34.0104 130.32 34.0998C130.833 34.1892 133.308 34.5475 133.467 34.5628C133.663 34.6216 136.074 35.0138 136.426 35.1078C136.763 35.1602 139.338 35.7284 139.734 35.7865C140.146 35.8863 142.985 36.6402 143.06 36.6876C143.16 36.6971 146.092 37.5202 146.229 37.5534C146.408 37.5706 149.112 38.4719 149.325 38.5525C149.578 38.637 152.551 39.6644 152.687 39.7175C152.896 39.8378 155.821 40.9408 155.997 40.9977C156.172 41.0546 158.954 42.1839 159.189 42.2466C159.36 42.3433 162.251 43.6032 162.368 43.6345C162.464 43.6838 165 44.8696 165.079 44.8773C165.179 44.8868 165.168 44.7856 165.091 44.7581C165.033 44.7325 163.702 43.9632 163.395 43.8134C163.072 43.622 161.581 42.8374 161.063 42.5872C160.565 42.3389 159.802 41.9248 159.049 41.6119C158.338 41.2829 156.993 40.6526 156.493 40.4242C155.97 40.2335 153.278 38.9927 151.418 38.2928C149.289 37.4668 147.352 36.7394 144.111 35.7864C140.85 34.8316 137.246 34.1043 136.163 33.8799C135.375 33.724 134.064 33.5779 133.019 33.3773L132.98 33.3734C132.363 33.3142 131.768 33.2369 131.448 33.2262C130.632 33.1478 129.956 33.0827 129.638 33.0521C129.52 33.0208 129.478 33.0368 129.478 33.0368C129.478 33.0368 129.314 33.0811 129.184 33.3893C129.057 33.6578 129.096 33.8819 129.154 33.9075L129.11 33.9434Z" fill="white"/>
</mask>
<g mask="url(#mask4_52_3700)">
<path d="M129.11 33.9434C129.11 33.9434 129.806 34.0104 130.32 34.0998C130.833 34.1892 133.308 34.5475 133.467 34.5628C133.663 34.6216 136.074 35.0138 136.426 35.1078C136.763 35.1602 139.338 35.7284 139.734 35.7865C140.146 35.8863 142.985 36.6402 143.06 36.6876C143.16 36.6971 146.092 37.5202 146.229 37.5534C146.408 37.5706 149.112 38.4719 149.325 38.5525C149.578 38.637 152.551 39.6644 152.687 39.7175C152.896 39.8378 155.821 40.9408 155.997 40.9977C156.172 41.0546 158.954 42.1839 159.189 42.2466C159.36 42.3433 162.251 43.6032 162.368 43.6345C162.464 43.6838 165 44.8696 165.079 44.8773C165.179 44.8868 165.168 44.7856 165.091 44.7581C165.033 44.7325 163.702 43.9632 163.395 43.8134C163.072 43.622 161.581 42.8374 161.063 42.5872C160.565 42.3389 159.802 41.9248 159.049 41.6119C158.338 41.2829 156.993 40.6526 156.493 40.4242C155.97 40.2335 153.278 38.9927 151.418 38.2928C149.289 37.4668 147.352 36.7394 144.111 35.7864C140.85 34.8316 137.246 34.1043 136.163 33.8799C135.375 33.724 134.064 33.5779 133.019 33.3773L132.98 33.3734C132.363 33.3142 131.768 33.2369 131.448 33.2262C130.632 33.1478 129.956 33.0827 129.638 33.0521C129.52 33.0208 129.478 33.0368 129.478 33.0368C129.478 33.0368 129.314 33.0811 129.184 33.3893C129.057 33.6578 129.096 33.8819 129.154 33.9075L129.11 33.9434Z" fill="#FED425"/>
</g>
<mask id="mask5_52_3700" style="mask-type:luminance" maskUnits="userSpaceOnUse" x="128" y="26" width="30" height="4">
<path d="M128.668 29.772C128.668 29.772 128.847 29.7892 129.09 29.7724C129.476 29.7293 134.288 29.3703 134.328 29.3741C134.386 29.3997 138.111 29.0764 140.56 28.8709C140.784 28.8324 141.047 28.8175 141.271 28.779C143.661 28.5678 149.845 27.7193 150.962 27.5862C152.123 27.4172 157.84 26.4236 157.907 26.3499C157.988 26.3377 157.956 26.2544 157.795 26.259C157.636 26.2437 153.247 26.5833 152.478 26.6496C151.724 26.7576 147.958 27.0969 146.761 27.2224C145.568 27.3082 141.68 27.6559 140.486 27.7615C139.331 27.8709 134.57 28.3151 133.56 28.3784C132.674 28.4134 129.593 28.7184 129.13 28.734C129.09 28.7302 129.048 28.7462 129.048 28.7462C129.048 28.7462 128.789 28.7214 128.622 29.0059C128.426 29.3679 128.542 29.6196 128.688 29.7739L128.668 29.772Z" fill="white"/>
</mask>
<g mask="url(#mask5_52_3700)">
<path d="M128.669 29.7721C128.669 29.7721 128.848 29.7893 129.09 29.7726C129.476 29.7295 134.288 29.3704 134.328 29.3742C134.386 29.3998 138.111 29.0765 140.56 28.8711C140.784 28.8325 141.047 28.8177 141.271 28.7791C143.661 28.5679 149.845 27.7195 150.962 27.5863C152.123 27.4173 157.84 26.4237 157.907 26.35C157.989 26.3378 157.956 26.2545 157.795 26.2591C157.636 26.2438 153.247 26.5834 152.478 26.6498C151.725 26.7577 147.958 27.0971 146.761 27.2225C145.569 27.3083 141.681 27.656 140.486 27.7616C139.331 27.871 134.57 28.3153 133.561 28.3785C132.674 28.4135 129.593 28.7186 129.13 28.7342C129.09 28.7303 129.048 28.7464 129.048 28.7464C129.048 28.7464 128.865 28.7689 128.622 29.006C128.458 29.2508 128.543 29.6197 128.688 29.774L128.669 29.7721Z" fill="#FED735"/>
</g>
</svg>
