<svg width="182" height="178" viewBox="0 0 182 178" fill="none" xmlns="http://www.w3.org/2000/svg">
<path d="M47.1585 152.018L47.1585 152.018C47.8036 155.642 51.534 157.833 55.0136 156.63L173.806 115.565C177.285 114.362 178.867 110.335 177.136 107.086L129.194 17.1108L128.785 16.3436L127.916 16.3168C114.554 15.9055 95.9547 19.1809 76.3374 25.9623C56.7201 32.7436 40.0688 41.6542 29.8131 50.2301L29.1462 50.7878L29.2985 51.6436L47.1585 152.018Z" fill="#E0F4CA" stroke="white" stroke-width="3"/>
<path d="M129.871 17.1107L129.462 16.3438L128.593 16.317C115.231 15.9057 96.6311 19.181 77.0144 25.9625C57.3971 32.7438 40.7458 41.6544 30.4901 50.2303L29.8233 50.7878L29.9754 51.6435L32.227 64.3114L32.6982 66.9625L34.7044 65.1664C40.5361 59.9454 49.0638 54.4475 59.4477 49.343L73.7429 99.8589C74.4749 102.446 77.1654 103.949 79.7522 103.217L79.7524 103.217C80.1431 103.107 80.5108 102.951 80.8503 102.756C82.7428 101.671 83.7325 99.404 83.1106 97.2077C83.1105 97.2076 83.1105 97.2074 83.1104 97.2073L68.4041 45.2391C72.688 43.4118 77.1973 41.6703 81.884 40.0501C86.572 38.4295 91.1952 37.0142 95.6941 35.8055L104.828 58.0326L104.828 58.0328C105.85 60.5191 108.694 61.7066 111.181 60.6849C111.38 60.6032 111.572 60.5092 111.755 60.4039C113.844 59.2065 114.773 56.6192 113.833 54.3322L105.274 33.5018C116.593 31.1038 126.695 30.1611 134.503 30.6668L137.191 30.8409L135.924 28.4643L129.871 17.1107Z" fill="#BCEA73" stroke="white" stroke-width="3"/>
<path d="M161.549 118.697L162.152 119.828L163.363 119.409L174.483 115.565C177.962 114.363 179.544 110.336 177.813 107.086C177.813 107.086 177.813 107.086 177.812 107.086L129.871 17.1111L129.463 16.3444L128.594 16.3172C123.147 16.1461 116.836 16.5925 109.966 17.6326L107.869 17.95L108.866 19.8211L161.549 118.697Z" fill="#BCEA73" stroke="white" stroke-width="3"/>
</svg>
