<svg width="47" height="54" viewBox="0 0 47 54" fill="none" xmlns="http://www.w3.org/2000/svg">
<path d="M13.5825 50.0739C8.51305 54.9604 8.50204 54.902 2.49534 49.8599C-0.0733804 47.7034 -0.0815916 46.0687 1.63029 43.1592C9.38173 29.9778 17.1266 16.7932 24.8549 3.59813C27.147 -0.315791 29.8605 -0.696602 33.3995 2.35833C37.0395 5.49934 40.71 8.60677 44.4403 11.6381C47.0741 13.7792 47.4631 15.4116 45.0861 17.9557C39.6339 23.7909 34.0328 29.4881 28.4359 35.1871C23.5241 40.1873 18.5374 45.114 13.5825 50.0739ZM25.3736 14.7962C28.0427 15.1892 30.3663 15.7517 32.6966 15.8092C34.7632 15.8593 37.042 18.2316 39.2208 15.5454C36.3367 12.9285 33.6332 10.4585 30.899 8.02467C30.6142 7.7714 30.1388 7.73457 29.4045 7.47506C28.138 9.77463 26.8746 12.0703 25.3736 14.7962ZM26.6938 28.1112C24.4562 27.8818 22.8119 27.659 21.161 27.5554C16.9679 27.2908 16.2651 27.9097 15.3487 32.3585C20.3205 35.1805 23.5721 32.818 26.6938 28.1112ZM7.14319 45.8127C11.3816 44.4424 13.8971 42.0514 15.6906 38.7873C14.2386 38.5769 12.9248 38.3876 11.5138 38.1834C9.96558 40.8853 8.5551 43.3491 7.14319 45.8127ZM21.8334 21.6049C23.6855 21.866 25.5435 22.0902 27.3885 22.3943C31.5437 23.0803 31.5409 23.0966 32.7996 21.8893C29.103 21.0765 25.5402 20.5475 21.8334 21.6049Z" fill="#E11D48"/>
</svg>
