<svg width="60" height="40" viewBox="0 0 60 40" fill="none" xmlns="http://www.w3.org/2000/svg">
<path d="M3.15111 27.4748C6.61759 25.156 10.2664 23.0708 13.8208 20.871C23.6327 14.7984 34.0583 9.78367 43.908 3.78144C45.1727 3.01089 46.4429 2.24842 47.7325 1.51948C47.8547 1.4506 47.9784 1.38184 48.1012 1.31371C52.2127 -0.979828 54.2124 -0.193286 55.4332 4.54031C56.5265 8.77505 57.0462 13.1084 59.2673 17.0737C60.6095 19.4692 59.5057 21.2075 56.6413 22.1513C51.8295 23.7367 46.9354 25.0857 42.1433 26.7261C30.5681 30.6879 19.0174 34.7224 7.48587 38.8099C3.61777 40.1805 2.09564 39.388 1.05742 35.4088C0.24479 32.2849 0.113574 29.5062 3.15111 27.4748ZM41.3543 12.2764C45.3818 14.288 48.6961 15.9442 52.5918 17.8894C51.6507 14.0266 50.8743 10.8426 50.0575 7.49426C49.3497 7.6822 48.7654 7.7119 48.3217 7.97593C46.189 9.24423 44.0939 10.5752 41.3543 12.2764ZM30.5534 24.054C25.6058 20.5419 24.3539 20.7177 19.7753 25.3233C23.895 28.1839 27.0655 24.7482 30.5534 24.054ZM43.1921 19.7362C40.3774 18.3935 38.253 17.3053 36.0673 16.3625C34.5261 15.6987 33.5389 16.3932 32.7369 18.0781C36.1719 18.8435 38.5993 22.7802 43.1921 19.7362ZM14.0329 29.7218C11.598 28.7901 10.1437 29.9463 9.0113 31.7931C10.6846 31.103 12.3589 30.4125 14.0329 29.7218Z" fill="#E11D48"/>
</svg>
