<svg width="64" height="18" viewBox="0 0 64 18" fill="none" xmlns="http://www.w3.org/2000/svg">
<path d="M1.87548 14.6281C0.475981 12.6717 0.00361602 10.2918 0.993504 7.6911C1.95848 5.15628 3.78059 4.05347 6.49806 3.983C12.1373 3.83691 17.8598 4.04792 23.3791 3.14423C28.9286 2.23544 34.5184 2.5846 40.0488 1.79696C45.4817 1.0227 50.9846 0.647409 56.4726 0.293838C63.3014 -0.145697 64.0647 0.84857 62.5546 7.36307C62.1097 9.28239 61.8347 11.2436 61.5156 13.1921C60.8856 17.0426 60.083 17.7373 56.2545 17.5585C46.9409 17.1239 37.63 16.5322 28.3146 16.2695C21.4097 16.0743 14.497 16.28 7.58863 16.3426C5.61561 16.3592 3.59489 16.7069 1.87548 14.6281ZM48.1817 7.2485C42.9138 6.75769 41.9436 7.18165 40.3902 10.6612C45.9355 11.5178 45.9356 11.5179 48.1817 7.2485ZM33.5655 8.22033C31.3073 8.48092 29.358 7.91289 27.5108 10.3402C30.1916 10.2445 32.3704 11.736 33.5655 8.22033ZM53.2559 11.4792C56.161 11.7621 56.1019 10.3139 56.0538 8.91803C56.0488 8.7789 55.7396 8.64647 55.3887 8.36342C54.7658 9.27204 54.1766 10.1342 53.2559 11.4792Z" fill="#E11D48"/>
</svg>
