<svg width="92" height="54" viewBox="0 0 92 54" fill="none" xmlns="http://www.w3.org/2000/svg">
<path d="M15.484 12.1237L7.80276 1.55496C7.52618 1.17466 7.79372 0.639228 8.26707 0.626002L18.91 0.328607C25.4048 0.147127 30.787 5.23458 30.9312 11.6921L15.484 12.1237Z" fill="#E2E8F5"/>
<path d="M8.97894 52.2053L16.1788 41.2207L31.6262 40.7891C31.7705 47.2463 26.6224 52.6283 20.1274 52.8097L9.48443 53.1071C9.0108 53.1204 8.71968 52.6006 8.97894 52.2053Z" fill="#D4DAF9"/>
<path d="M16.1435 41.2465C8.80972 41.4518 2.31911 29.7021 1.17235 27.449C1.05305 27.2145 1.04692 26.9394 1.15562 26.6985C2.20056 24.384 8.15959 12.2859 15.4934 12.0806L22.1905 27.3363L16.1435 41.2465Z" fill="#D4DAF9"/>
<path d="M77.8621 35.726L74.4526 24.0562L77.3461 12.5875C81.304 14.5652 85.0603 16.9952 88.5327 19.8623C89.0862 20.2992 89.5523 20.8423 89.9139 21.4563C90.3297 24.1051 90.1118 27.1367 87.6785 29.342C84.3385 32.4 81.7271 33.5295 77.8621 35.726Z" fill="#A9DF69"/>
<path d="M49.8147 43.5276C46.4752 43.621 43.1092 43.4345 39.7513 42.9581L17.6911 39.4015L16.0443 34.8846L15.9106 28.894L17.7768 26.8405L15.8129 24.5109L15.5358 12.0917L38.9864 7.42107C52.1233 4.80507 65.5955 6.6856 77.3005 12.5366L77.8173 35.701C69.2864 40.5511 59.6474 43.2526 49.8147 43.5276Z" fill="#F2F2F2"/>
<path d="M77.9065 37.4362L76.6344 34.8224L77.7634 31.0124C81.6299 28.815 85.2749 26.177 88.6167 23.1182C89.1468 22.633 89.5898 22.0654 89.9258 21.4484C91.3142 23.6871 91.2427 27.3448 88.7598 29.5417C85.4183 32.6008 81.7733 35.2388 77.9065 37.4362Z" fill="#94D744"/>
<path d="M49.8987 45.2191C46.5572 45.3117 43.189 45.1238 39.8289 44.6454L16.1834 41.2778L16.038 34.836L39.6834 38.2036C43.0436 38.6817 46.412 38.8699 49.7533 38.7773C59.5921 38.5046 69.2088 35.8064 77.7433 30.9492L77.8887 37.391C69.3542 42.2482 59.7378 44.9464 49.8987 45.2191Z" fill="#E2E8F5"/>
<path d="M54.6431 27.8159L15.8853 28.888L15.7855 24.4798L54.5434 23.4077C55.7613 23.374 56.772 24.3341 56.7995 25.5508C56.827 26.7675 55.861 27.7822 54.6431 27.8159Z" fill="#E2E8F5"/>
<path d="M47.8413 25.8173C47.949 30.6555 51.9827 34.4672 56.8507 34.3309C61.7187 34.1945 65.5777 30.1619 65.4699 25.3236C65.3621 20.4854 61.3285 16.6737 56.4605 16.8101C51.5924 16.9464 47.7335 20.9791 47.8413 25.8173Z" fill="#76A0D4"/>
<path d="M51.3669 25.7188C51.4316 28.6217 53.8518 30.9088 56.7727 30.827C59.6935 30.7452 62.0089 28.3255 61.9442 25.4226C61.8796 22.5196 59.4593 20.2326 56.5385 20.3144C53.6177 20.3962 51.3023 22.8158 51.3669 25.7188Z" fill="#94BDE5"/>
</svg>
