<svg width="98" height="124" viewBox="0 0 98 124" fill="none" xmlns="http://www.w3.org/2000/svg">
<g filter="url(#filter0_d_52_4038)">
<path d="M82.2303 68.0672C82.9978 68.4353 82.7541 69.3449 81.9053 69.2799C69.8607 68.1647 60.415 71.3202 49.7052 81.1559C43.2808 87.0057 38.1178 96.3455 33.6173 107.715C33.3276 108.45 32.0288 108.102 32.1453 107.321C33.9325 95.224 34.1599 84.5617 31.55 76.2912C27.1929 62.4184 20.5905 54.9628 9.6019 49.9062C8.83434 49.5381 9.07804 48.6286 9.92684 48.6936C21.9796 49.7784 31.4253 46.6229 42.1351 36.7872C48.5306 30.9297 53.6648 21.5822 58.1652 10.2127C58.4549 9.47801 59.7538 9.82603 59.6373 10.6072C57.85 22.7036 57.6515 33.3736 60.2903 41.6519C64.6474 55.5247 71.2498 62.9804 82.2303 68.0672Z" fill="#DC2626" shape-rendering="crispEdges"/>
<path d="M83.9601 64.4606L83.9359 64.449L83.9116 64.4377C78.8432 62.0897 74.9561 59.2801 71.8353 55.5767C68.6981 51.8539 66.174 47.0362 64.1065 40.4533L64.1039 40.4452L64.1013 40.4371C61.7465 33.0495 61.8317 23.1216 63.5943 11.1918C64.0644 8.01867 61.5349 6.36527 60.0889 5.9778C58.6428 5.59033 55.6255 5.75746 54.446 8.74055C50.0045 19.9613 45.1411 28.6099 39.4334 33.8374L39.4294 33.8411C34.3475 38.5083 29.7526 41.4185 25.1744 43.074C20.62 44.7208 15.8489 45.2104 10.2854 44.7097L10.2588 44.7073L10.2321 44.7052C8.2807 44.5559 5.95904 45.6222 5.29453 48.1022C4.63002 50.5822 6.10745 52.6665 7.87208 53.5129L7.90083 53.5267L7.92979 53.54C12.999 55.8726 16.8855 58.6739 20.0055 62.372C23.1423 66.09 25.6662 70.9066 27.7338 77.4898L27.7354 77.495C30.0646 84.8759 29.9521 94.7976 28.1883 106.736C27.7181 109.909 30.2477 111.562 31.6937 111.95C33.1397 112.337 36.1571 112.17 37.3366 109.187C41.775 97.9744 46.6651 89.3338 52.3983 84.1135L52.4046 84.1077L52.4109 84.102C57.4931 79.4346 62.0872 76.5252 66.6627 74.8737C71.2138 73.2311 75.9802 72.7484 81.5365 73.2629L81.5683 73.2658L81.6001 73.2682C83.5515 73.4176 85.8731 72.3512 86.5376 69.8712C87.2021 67.3912 85.7247 65.3069 83.9601 64.4606Z" stroke="white" stroke-opacity="0.6" stroke-width="8" shape-rendering="crispEdges"/>
</g>
<defs>
<filter id="filter0_d_52_4038" x="0.124573" y="0.843262" width="97.583" height="122.241" filterUnits="userSpaceOnUse" color-interpolation-filters="sRGB">
<feFlood flood-opacity="0" result="BackgroundImageFix"/>
<feColorMatrix in="SourceAlpha" type="matrix" values="0 0 0 0 0 0 0 0 0 0 0 0 0 0 0 0 0 0 127 0" result="hardAlpha"/>
<feOffset dx="3" dy="3"/>
<feGaussianBlur stdDeviation="2"/>
<feComposite in2="hardAlpha" operator="out"/>
<feColorMatrix type="matrix" values="0 0 0 0 0 0 0 0 0 0 0 0 0 0 0 0 0 0 0.25 0"/>
<feBlend mode="normal" in2="BackgroundImageFix" result="effect1_dropShadow_52_4038"/>
<feBlend mode="normal" in="SourceGraphic" in2="effect1_dropShadow_52_4038" result="shape"/>
</filter>
</defs>
</svg>
