<svg width="2131" height="627" viewBox="0 0 2131 627" fill="none" xmlns="http://www.w3.org/2000/svg">
<path 
fill-rule="evenodd" clip-rule="evenodd" d="M58.5463 227.543C41.3929 222.662 25.7699 212.137 14.804 196.527C-10.4931 160.516 -1.42706 111.08 35.0536 86.1087C71.5342 61.1374 121.615 70.0867 146.912 106.098C153.999 116.185 158.388 127.327 160.234 138.689C177.388 143.57 193.011 154.095 203.977 169.705C204.935 171.069 205.844 172.452 206.703 173.852C252.652 160.507 303.805 175.629 334.373 214.608C334.573 214.469 334.774 214.33 334.976 214.192C374.149 187.378 423.912 186.973 462.595 209.107C471.155 190.128 484.923 173.151 503.481 160.448C557.509 123.465 631.679 136.719 669.144 190.052C686.942 215.386 693.255 245.208 689.187 273.501C741.821 245.487 808.509 260.402 843.387 310.052C856.391 328.563 863.264 349.469 864.436 370.425C866.571 376.026 868.151 381.755 869.191 387.537C877.408 365.974 892.119 346.57 912.749 332.448C966.778 295.465 1040.95 308.719 1078.41 362.052C1080.77 365.411 1082.93 368.849 1084.89 372.352C1092.91 349.828 1107.94 329.501 1129.34 314.856C1163.42 291.526 1205.51 288.188 1241.36 302.289C1244.04 300.079 1246.86 297.967 1249.79 295.962C1303.81 258.979 1377.98 272.233 1415.45 325.565C1415.62 325.808 1415.79 326.05 1415.96 326.293C1434.96 317.757 1455.46 314.53 1475.44 316.25C1475.39 278.975 1493.28 242.297 1526.65 219.448C1572.88 187.805 1633.85 192.939 1673.96 228.486C1676.35 226.568 1678.83 224.726 1681.4 222.966C1705.23 206.656 1732.97 200.117 1759.76 202.477C1764.9 172.356 1781.87 144.229 1809.31 125.448C1834.72 108.051 1864.6 101.77 1893.01 105.549C1896.58 72.8245 1913.99 41.757 1943.54 21.5288C1997.57 -15.454 2071.74 -2.1999 2109.2 51.1325C2146.67 104.465 2133.24 177.68 2079.21 214.663C2053.8 232.06 2023.93 238.341 1995.51 234.561C1991.94 267.286 1974.53 298.354 1944.98 318.582C1921.16 334.891 1893.41 341.431 1866.63 339.071C1861.48 369.192 1844.51 397.318 1817.07 416.1C1770.85 447.743 1709.88 442.609 1669.77 407.062C1667.38 408.98 1664.9 410.822 1662.33 412.582C1638.57 428.844 1610.92 435.393 1584.2 433.091C1584.25 470.367 1566.36 507.045 1532.99 529.894C1478.96 566.877 1404.79 553.623 1367.32 500.29C1367.15 500.048 1366.98 499.805 1366.81 499.562C1352.79 505.86 1337.96 509.268 1323.12 509.931C1322.91 546.932 1305.05 583.251 1271.91 605.936C1217.88 642.919 1143.71 629.665 1106.24 576.333C1084.51 545.394 1079.9 507.765 1090.41 474.4C1081.95 494.395 1067.8 512.318 1048.42 525.582C994.395 562.565 920.225 549.311 882.759 495.978C871.408 479.82 864.729 461.836 862.435 443.588C855.376 459.54 843.89 473.818 828.335 484.466C799.402 504.27 763.486 506.658 733.347 493.91C700.013 490.501 668.328 473.294 647.734 443.978C629.936 418.643 623.623 388.822 627.691 360.529C590.602 380.269 546.534 378.693 511.535 358.668C502.975 377.646 489.207 394.624 470.649 407.327C418.369 443.113 347.23 431.86 308.736 382.774C308.536 382.913 308.335 383.051 308.134 383.189C254.105 420.172 179.935 406.918 142.47 353.586C129.333 334.885 122.453 313.74 121.387 292.569C101.991 288.548 84.0544 277.481 71.8689 260.134C64.7823 250.046 60.3923 238.905 58.5463 227.543Z" fill="#FFCA4C"/>
</svg>
