<svg width="2130" height="2449" viewBox="0 0 2130 2449" fill="none" xmlns="http://www.w3.org/2000/svg">
<mask id="path-1-inside-1_52_3829" fill="white">
<path fill-rule="evenodd" clip-rule="evenodd" d="M14.3346 195.954C25.3005 211.564 40.9236 222.089 58.077 226.971C59.923 238.333 64.313 249.474 71.3995 259.562C83.5851 276.908 101.521 287.975 120.918 291.997C121.984 313.167 128.864 334.313 142.001 353.013C154.446 370.729 170.941 384.023 189.403 392.522V2448.91H1939.95V320.987C1941.48 320.034 1943.01 319.041 1944.51 318.01C1974.06 297.781 1991.47 266.714 1995.04 233.989C2023.46 237.768 2053.33 231.488 2078.74 214.09C2132.77 177.108 2146.2 103.893 2108.73 50.5601C2071.27 -2.77236 1997.1 -16.0264 1943.07 20.9564C1913.52 41.1845 1896.11 72.2521 1892.54 104.977C1864.13 101.198 1834.25 107.478 1808.84 124.875C1781.4 143.657 1764.43 171.783 1759.29 201.904C1732.5 199.545 1704.76 206.084 1680.93 222.393C1678.36 224.153 1675.88 225.995 1673.49 227.914C1633.38 192.366 1572.41 187.233 1526.19 218.875C1492.81 241.724 1474.92 278.403 1474.97 315.678C1454.99 313.957 1434.49 317.184 1415.49 325.721C1415.32 325.478 1415.15 325.235 1414.98 324.993C1377.51 271.66 1303.34 258.406 1249.32 295.389C1246.39 297.395 1243.58 299.507 1240.89 301.717C1205.04 287.615 1162.95 290.954 1128.87 314.283C1107.47 328.928 1092.44 349.256 1084.42 371.78C1082.46 368.277 1080.3 364.838 1077.94 361.479C1040.48 308.147 966.308 294.893 912.28 331.875C894.104 344.317 880.523 360.86 871.929 379.366C870.261 379.24 868.594 379.112 866.93 378.982C866.101 375.91 865.114 372.863 863.967 369.852C862.795 348.897 855.922 327.99 842.918 309.479C808.04 259.83 741.352 244.914 688.717 272.929C692.786 244.636 686.473 214.814 668.675 189.479C631.21 136.147 557.04 122.893 503.011 159.875C484.454 172.578 470.686 189.556 462.126 208.534C423.443 186.401 373.68 186.805 334.506 213.62C334.305 213.758 334.104 213.896 333.904 214.035C303.336 175.056 252.182 159.935 206.234 173.28C205.374 171.879 204.465 170.497 203.508 169.133C192.542 153.523 176.919 142.998 159.765 138.116C157.919 126.754 153.529 115.613 146.443 105.525C121.146 69.5143 71.0649 60.5649 34.5842 85.5362C-1.89638 110.508 -10.9624 159.943 14.3346 195.954Z"/>
</mask>
<path fill-rule="evenodd" clip-rule="evenodd" d="M14.3346 195.954C25.3005 211.564 40.9236 222.089 58.077 226.971C59.923 238.333 64.313 249.474 71.3995 259.562C83.5851 276.908 101.521 287.975 120.918 291.997C121.984 313.167 128.864 334.313 142.001 353.013C154.446 370.729 170.941 384.023 189.403 392.522V2448.91H1939.95V320.987C1941.48 320.034 1943.01 319.041 1944.51 318.01C1974.06 297.781 1991.47 266.714 1995.04 233.989C2023.46 237.768 2053.33 231.488 2078.74 214.09C2132.77 177.108 2146.2 103.893 2108.73 50.5601C2071.27 -2.77236 1997.1 -16.0264 1943.07 20.9564C1913.52 41.1845 1896.11 72.2521 1892.54 104.977C1864.13 101.198 1834.25 107.478 1808.84 124.875C1781.4 143.657 1764.43 171.783 1759.29 201.904C1732.5 199.545 1704.76 206.084 1680.93 222.393C1678.36 224.153 1675.88 225.995 1673.49 227.914C1633.38 192.366 1572.41 187.233 1526.19 218.875C1492.81 241.724 1474.92 278.403 1474.97 315.678C1454.99 313.957 1434.49 317.184 1415.49 325.721C1415.32 325.478 1415.15 325.235 1414.98 324.993C1377.51 271.66 1303.34 258.406 1249.32 295.389C1246.39 297.395 1243.58 299.507 1240.89 301.717C1205.04 287.615 1162.95 290.954 1128.87 314.283C1107.47 328.928 1092.44 349.256 1084.42 371.78C1082.46 368.277 1080.3 364.838 1077.94 361.479C1040.48 308.147 966.308 294.893 912.28 331.875C894.104 344.317 880.523 360.86 871.929 379.366C870.261 379.24 868.594 379.112 866.93 378.982C866.101 375.91 865.114 372.863 863.967 369.852C862.795 348.897 855.922 327.99 842.918 309.479C808.04 259.83 741.352 244.914 688.717 272.929C692.786 244.636 686.473 214.814 668.675 189.479C631.21 136.147 557.04 122.893 503.011 159.875C484.454 172.578 470.686 189.556 462.126 208.534C423.443 186.401 373.68 186.805 334.506 213.62C334.305 213.758 334.104 213.896 333.904 214.035C303.336 175.056 252.182 159.935 206.234 173.28C205.374 171.879 204.465 170.497 203.508 169.133C192.542 153.523 176.919 142.998 159.765 138.116C157.919 126.754 153.529 115.613 146.443 105.525C121.146 69.5143 71.0649 60.5649 34.5842 85.5362C-1.89638 110.508 -10.9624 159.943 14.3346 195.954Z" fill="#FFCA4C"/>
<path d="M58.077 226.971L65.9735 225.688C65.4758 222.624 63.2514 220.125 60.2666 219.276L58.077 226.971ZM14.3346 195.954L20.8808 191.356L20.8808 191.356L14.3346 195.954ZM71.3995 259.562L77.9458 254.963L77.9458 254.963L71.3995 259.562ZM120.918 291.997L128.908 291.594C128.725 287.957 126.108 284.903 122.542 284.163L120.918 291.997ZM142.001 353.013L148.547 348.415L148.547 348.415L142.001 353.013ZM189.403 392.522H197.403C197.403 389.398 195.586 386.561 192.749 385.255L189.403 392.522ZM189.403 2448.91H181.403C181.403 2453.33 184.985 2456.91 189.403 2456.91V2448.91ZM1939.95 2448.91V2456.91C1944.36 2456.91 1947.95 2453.33 1947.95 2448.91H1939.95ZM1939.95 320.987L1935.73 314.189C1933.38 315.648 1931.95 318.219 1931.95 320.987H1939.95ZM1944.51 318.01L1939.99 311.408L1939.99 311.408L1944.51 318.01ZM1995.04 233.989L1996.1 226.059C1993.96 225.775 1991.8 226.364 1990.11 227.693C1988.41 229.022 1987.32 230.979 1987.09 233.12L1995.04 233.989ZM2078.74 214.09L2083.26 220.692L2083.26 220.692L2078.74 214.09ZM2108.73 50.5601L2115.28 45.9615L2115.28 45.9615L2108.73 50.5601ZM1943.07 20.9564L1947.59 27.5579L1947.59 27.5579L1943.07 20.9564ZM1892.54 104.977L1891.49 112.907C1893.62 113.191 1895.78 112.602 1897.48 111.273C1899.17 109.944 1900.26 107.987 1900.49 105.846L1892.54 104.977ZM1808.84 124.875L1813.36 131.477L1813.36 131.477L1808.84 124.875ZM1759.29 201.904L1758.58 209.873C1762.74 210.239 1766.47 207.358 1767.17 203.252L1759.29 201.904ZM1680.93 222.393L1685.45 228.995L1685.45 228.995L1680.93 222.393ZM1673.49 227.914L1668.19 233.901C1671.11 236.488 1675.47 236.592 1678.51 234.149L1673.49 227.914ZM1526.19 218.875L1521.67 212.274L1521.67 212.274L1526.19 218.875ZM1474.97 315.678L1474.28 323.648C1476.51 323.841 1478.73 323.087 1480.38 321.57C1482.03 320.052 1482.97 317.912 1482.97 315.669L1474.97 315.678ZM1415.49 325.721L1408.91 330.271C1411.1 333.444 1415.25 334.599 1418.77 333.018L1415.49 325.721ZM1414.98 324.993L1421.53 320.395L1421.53 320.394L1414.98 324.993ZM1249.32 295.389L1253.84 301.991L1253.84 301.991L1249.32 295.389ZM1240.89 301.717L1237.96 309.161C1240.66 310.224 1243.72 309.74 1245.96 307.898L1240.89 301.717ZM1128.87 314.283L1133.38 320.885L1133.38 320.885L1128.87 314.283ZM1084.42 371.78L1077.44 375.684C1078.97 378.424 1081.96 380.015 1085.09 379.752C1088.22 379.489 1090.9 377.421 1091.96 374.464L1084.42 371.78ZM1077.94 361.479L1084.49 356.881L1084.49 356.881L1077.94 361.479ZM912.28 331.875L916.799 338.477L916.799 338.477L912.28 331.875ZM871.929 379.366L871.323 387.343C874.647 387.596 877.78 385.76 879.184 382.736L871.929 379.366ZM866.93 378.982L859.206 381.067C860.089 384.336 862.934 386.695 866.31 386.958L866.93 378.982ZM863.967 369.852L855.979 370.299C856.025 371.121 856.198 371.931 856.491 372.701L863.967 369.852ZM842.918 309.479L849.464 304.881L849.464 304.881L842.918 309.479ZM688.717 272.929L680.799 271.79C680.37 274.773 681.654 277.744 684.12 279.475C686.586 281.207 689.816 281.406 692.476 279.991L688.717 272.929ZM668.675 189.479L662.129 194.078L662.129 194.078L668.675 189.479ZM503.011 159.875L498.493 153.274L498.493 153.274L503.011 159.875ZM462.126 208.534L458.153 215.478C460.11 216.598 462.449 216.84 464.594 216.144C466.739 215.448 468.491 213.879 469.418 211.823L462.126 208.534ZM334.506 213.62L339.025 220.222L339.025 220.222L334.506 213.62ZM333.904 214.035L327.608 218.972C330.222 222.305 334.981 223.023 338.462 220.61L333.904 214.035ZM206.234 173.28L199.417 177.466C201.302 180.536 205.006 181.967 208.465 180.962L206.234 173.28ZM203.508 169.133L210.054 164.534L210.054 164.534L203.508 169.133ZM159.765 138.116L151.869 139.399C152.366 142.462 154.591 144.961 157.576 145.811L159.765 138.116ZM146.443 105.525L152.989 100.926L152.989 100.926L146.443 105.525ZM34.5842 85.5362L39.1031 92.1378L39.1031 92.1378L34.5842 85.5362ZM60.2666 219.276C44.7975 214.874 30.7457 205.398 20.8808 191.356L7.78843 200.553C19.8554 217.73 37.0496 229.305 55.8874 234.665L60.2666 219.276ZM77.9458 254.963C71.5659 245.881 67.629 235.877 65.9735 225.688L50.1806 228.254C52.217 240.788 57.0601 253.067 64.8533 264.16L77.9458 254.963ZM122.542 284.163C105.04 280.535 88.9054 270.564 77.9458 254.963L64.8533 264.16C78.2648 283.252 98.0028 295.416 119.294 299.83L122.542 284.163ZM148.547 348.415C136.298 330.979 129.9 311.295 128.908 291.594L112.928 292.399C114.068 315.04 121.429 337.647 135.454 357.612L148.547 348.415ZM192.749 385.255C175.527 377.327 160.152 364.935 148.547 348.415L135.454 357.612C148.739 376.523 166.356 390.719 186.058 399.789L192.749 385.255ZM181.403 392.522V2448.91H197.403V392.522H181.403ZM189.403 2456.91H1939.95V2440.91H189.403V2456.91ZM1947.95 2448.91V320.987H1931.95V2448.91H1947.95ZM1939.99 311.408C1938.59 312.372 1937.16 313.299 1935.73 314.189L1944.16 327.785C1945.8 326.769 1947.43 325.71 1949.03 324.611L1939.99 311.408ZM1987.09 233.12C1983.76 263.6 1967.56 292.541 1939.99 311.408L1949.03 324.611C1980.57 303.022 1999.18 269.827 2003 234.858L1987.09 233.12ZM2074.23 207.489C2050.51 223.723 2022.64 229.589 1996.1 226.059L1993.99 241.919C2024.27 245.947 2056.15 239.253 2083.26 220.692L2074.23 207.489ZM2102.19 55.1587C2137.07 104.816 2124.61 173.004 2074.23 207.489L2083.26 220.692C2140.94 181.212 2155.33 102.969 2115.28 45.9615L2102.19 55.1587ZM1947.59 27.5579C1998.03 -6.96964 2067.26 5.43813 2102.19 55.1587L2115.28 45.9615C2075.28 -10.9828 1996.17 -25.0832 1938.55 14.3548L1947.59 27.5579ZM1900.49 105.846C1903.82 75.3657 1920.03 46.4253 1947.59 27.5579L1938.55 14.3548C1907.01 35.9437 1888.41 69.1385 1884.59 104.108L1900.49 105.846ZM1813.36 131.477C1837.07 115.243 1864.95 109.377 1891.49 112.907L1893.59 97.0468C1863.31 93.0186 1831.44 99.7131 1804.32 118.274L1813.36 131.477ZM1767.17 203.252C1771.97 175.198 1787.76 148.997 1813.36 131.477L1804.32 118.274C1775.04 138.317 1756.9 168.368 1751.4 200.557L1767.17 203.252ZM1685.45 228.995C1707.68 213.775 1733.57 207.67 1758.58 209.873L1759.99 193.935C1731.43 191.42 1701.83 198.393 1676.41 215.792L1685.45 228.995ZM1678.51 234.149C1680.73 232.359 1683.05 230.639 1685.45 228.995L1676.41 215.792C1673.67 217.668 1671.03 219.632 1668.48 221.678L1678.51 234.149ZM1530.7 225.477C1573.84 195.949 1630.77 200.738 1668.19 233.901L1678.8 221.926C1636 183.995 1570.98 178.517 1521.67 212.274L1530.7 225.477ZM1482.97 315.669C1482.93 280.952 1499.58 246.785 1530.7 225.477L1521.67 212.274C1486.04 236.663 1466.92 275.854 1466.97 315.687L1482.97 315.669ZM1418.77 333.018C1436.49 325.057 1455.62 322.041 1474.28 323.648L1475.65 307.708C1454.36 305.873 1432.49 309.312 1412.21 318.423L1418.77 333.018ZM1408.43 329.591C1408.59 329.818 1408.75 330.044 1408.91 330.271L1422.07 321.171C1421.89 320.911 1421.71 320.652 1421.53 320.395L1408.43 329.591ZM1253.84 301.991C1304.28 267.463 1373.51 279.871 1408.43 329.591L1421.53 320.394C1381.52 263.45 1302.41 249.349 1244.8 288.788L1253.84 301.991ZM1245.96 307.898C1248.47 305.836 1251.1 303.864 1253.84 301.991L1244.8 288.787C1241.67 290.925 1238.68 293.178 1235.81 295.535L1245.96 307.898ZM1133.38 320.885C1165.18 299.121 1204.47 295.987 1237.96 309.161L1243.81 294.272C1205.62 279.243 1160.72 282.787 1124.35 307.682L1133.38 320.885ZM1091.96 374.464C1099.43 353.491 1113.42 334.552 1133.38 320.885L1124.35 307.682C1101.52 323.305 1085.46 345.02 1076.88 369.096L1091.96 374.464ZM1071.4 366.078C1073.6 369.213 1075.61 372.42 1077.44 375.684L1091.4 367.876C1089.31 364.134 1087.01 360.464 1084.49 356.881L1071.4 366.078ZM916.799 338.477C967.24 303.949 1036.47 316.357 1071.4 366.078L1084.49 356.881C1044.49 299.936 965.376 285.836 907.761 325.274L916.799 338.477ZM879.184 382.736C887.186 365.506 899.833 350.09 916.799 338.477L907.761 325.274C888.374 338.544 873.86 356.214 864.673 375.997L879.184 382.736ZM872.534 371.389C870.871 371.263 869.21 371.135 867.551 371.006L866.31 386.958C867.979 387.088 869.65 387.216 871.323 387.343L872.534 371.389ZM856.491 372.701C857.542 375.46 858.447 378.252 859.206 381.067L874.654 376.898C873.755 373.568 872.685 370.266 871.442 367.003L856.491 372.701ZM836.372 314.078C848.496 331.337 854.889 350.799 855.979 370.299L871.954 369.405C870.701 346.995 863.347 324.643 849.464 304.881L836.372 314.078ZM692.476 279.991C741.619 253.835 803.862 267.799 836.372 314.078L849.464 304.881C812.218 251.86 741.085 235.994 684.959 265.867L692.476 279.991ZM662.129 194.078C678.714 217.687 684.587 245.444 680.799 271.79L696.636 274.067C700.984 243.828 694.231 211.941 675.221 184.88L662.129 194.078ZM507.53 166.477C557.972 131.949 627.201 144.357 662.129 194.078L675.221 184.88C635.219 127.936 556.108 113.836 498.493 153.274L507.53 166.477ZM469.418 211.823C477.388 194.154 490.209 178.334 507.53 166.477L498.493 153.274C478.699 166.823 463.984 184.957 454.833 205.245L469.418 211.823ZM339.025 220.222C375.572 195.205 422.029 194.809 458.153 215.478L466.099 201.59C424.856 177.992 371.788 178.405 329.987 207.018L339.025 220.222ZM338.462 220.61C338.649 220.48 338.837 220.35 339.025 220.222L329.988 207.018C329.773 207.165 329.559 207.313 329.345 207.461L338.462 220.61ZM208.465 180.962C251.386 168.497 299.124 182.65 327.608 218.972L340.199 209.098C307.547 167.462 252.979 151.373 204.003 165.597L208.465 180.962ZM196.961 173.731C197.825 174.961 198.643 176.206 199.417 177.466L213.051 169.093C212.105 167.553 211.106 166.033 210.054 164.534L196.961 173.731ZM157.576 145.811C173.045 150.213 187.096 159.689 196.961 173.731L210.054 164.534C197.987 147.357 180.793 135.782 161.955 130.422L157.576 145.811ZM139.896 110.124C146.276 119.206 150.213 129.21 151.869 139.399L167.662 136.833C165.625 124.299 160.782 112.02 152.989 100.926L139.896 110.124ZM39.1031 92.1378C71.9968 69.6217 117.137 77.7248 139.896 110.124L152.989 100.926C125.154 61.3038 70.1329 51.5082 30.0654 78.9347L39.1031 92.1378ZM20.8808 191.356C-1.83461 159.02 6.27087 114.612 39.1031 92.1378L30.0654 78.9347C-10.0636 106.403 -20.0902 160.867 7.78843 200.553L20.8808 191.356Z" fill="#1D4ED8" mask="url(#path-1-inside-1_52_3829)"/>
</svg>
