<svg width="1728" height="247" viewBox="0 0 1728 247" fill="none" xmlns="http://www.w3.org/2000/svg">
<path d="M1718.92 79.2908C1717.79 80.6368 1714.38 74.4452 1712.4 74.4452C1708.43 74.4452 1705.31 79.8292 1701.33 80.6368C1691.4 81.9828 1689.7 73.9069 1681.76 85.7515C1680.34 87.905 1674.1 85.7514 1670.98 88.9818C1668.71 91.4045 1673.81 98.942 1671.26 98.6728C1662.18 98.1344 1666.72 113.479 1647.15 111.056C1630.13 103.788 1632.11 87.905 1628.14 67.9846C1626.72 61.2547 1620.76 60.1779 1614.24 59.6395C1611.4 59.3703 1615.09 50.7561 1608 46.9873C1599.2 41.8726 1606.86 30.8356 1598.92 30.5664C1584.45 29.7588 1595.51 29.2204 1584.73 18.9909C1573.95 8.76149 1583.32 7.41552 1566.29 4.45437C1549.27 1.49322 1550.97 -2.00632 1542.46 4.45437C1533.95 10.9151 1520.9 6.60799 1518.63 16.0298C1516.36 25.4517 1516.36 10.3767 1502.75 16.0298C1486.57 22.7597 1504.16 47.2565 1504.16 47.2565C1495.65 52.3712 1486.29 49.4101 1488.56 60.4471C1490.83 71.4841 1467 78.7524 1467.85 88.1742C1468.7 97.8653 1452.81 87.6358 1446.57 94.6349C1440.33 101.634 1430.12 89.5202 1421.04 94.3657C1408.27 100.826 1404.3 95.7117 1400.61 94.9041C1390.97 92.7505 1390.12 98.1344 1385.86 86.559C1381.61 75.2528 1365.15 82.5211 1365.15 82.5211C1365.15 82.5211 1358.34 61.2547 1348.7 61.2547C1339.34 61.2547 1334.8 44.0262 1325.43 44.0262C1316.07 44.0262 1297.06 42.1418 1293.38 42.1418C1289.69 42.1418 1278.34 45.6413 1277.21 54.794C1276.35 63.6774 1277.21 67.4462 1269.55 68.2538C1261.89 69.0613 1254.51 52.102 1246 54.794C1237.49 57.4859 1248.84 59.3703 1237.49 63.6774C1226.14 68.2537 1215.64 69.0614 1214.79 75.2529C1213.94 81.4444 1201.46 97.8653 1191.25 100.826C1180.75 103.788 1183.59 106.749 1179.9 119.132C1174.51 137.168 1160.04 134.476 1160.04 134.476C1160.04 134.476 1138.19 137.975 1142.17 151.435C1143.58 156.281 1143.3 160.319 1142.73 163.549C1138.76 165.164 1134.79 166.779 1130.53 167.049C1125.71 166.51 1113.23 193.699 1097.34 183.739C1095.07 184.008 1092.8 184.008 1090.82 184.008C1087.7 182.931 1084.29 181.585 1081.17 180.508C1078.9 177.816 1079.75 177.278 1079.75 177.278C1079.47 177.278 1078.62 177.278 1074.65 176.47C1066.7 174.586 1067.84 163.28 1053.94 157.896C1040.04 152.243 1030.39 141.206 1022.45 142.013C1014.5 142.821 989.821 142.821 986.133 146.59C982.161 150.358 963.437 138.245 954.642 151.166C945.848 164.357 950.67 165.164 939.89 165.164C929.109 165.164 921.166 155.742 909.251 160.588C897.335 165.164 880.597 162.472 870.952 159.78C861.022 157.088 850.242 170.01 839.461 176.47C828.681 182.931 828.681 196.66 812.794 193.699C796.339 190.738 791.233 198.275 787.261 208.505C783.573 218.196 761.728 204.736 758.891 216.85C755.487 218.196 750.664 220.349 742.72 223.58C713.783 236.232 694.492 213.081 694.492 213.081C694.492 213.081 677.754 206.351 660.732 199.352C648.249 193.968 636.618 194.237 623.568 189.123C620.163 177.547 603.425 177.547 592.928 171.625C582.431 165.972 583.283 159.242 572.218 161.665C565.126 163.28 560.587 167.587 552.36 166.51C547.537 165.972 538.742 159.78 535.054 160.049C524.557 160.857 530.231 152.781 523.139 151.704C516.046 150.897 514.344 150.089 505.549 147.666C496.755 145.244 490.797 136.899 486.542 147.666C482.286 158.434 479.733 160.319 476.045 159.78C472.641 159.242 465.548 157.088 459.591 159.78C453.633 162.472 448.243 159.511 441.434 159.78C434.625 160.049 440.583 145.244 430.937 142.283C421.291 139.321 418.738 141.744 411.929 142.283C405.121 142.821 409.092 132.591 400.581 129.63C372.212 118.863 338.168 147.397 330.225 153.05C321.43 152.243 319.444 153.05 314.621 152.512C295.33 150.897 296.181 157.896 289.656 147.128C283.131 136.36 292.777 132.591 276.038 130.976C259.017 129.361 268.662 118.863 246.25 114.286C223.554 109.71 240.576 102.711 222.136 94.3657C203.696 86.0206 190.646 72.5609 179.581 78.4832C168.233 84.4055 171.638 75.2529 162.56 75.2529C153.765 75.2529 160.006 62.0622 147.24 55.3323C134.473 48.6024 109.224 49.6792 100.43 52.6404C60.7122 23.8364 73.4786 63.4083 47.3784 45.6413C39.4349 40.2574 30.6403 49.41 25.25 51.5636C20.7109 53.1788 11.6326 49.9485 8.79559 53.448C3.40534 59.9087 0.284668 61.5239 0.284668 61.5239V246.73H1728.28V74.4452C1728 74.9836 1724.88 72.2917 1718.92 79.2908Z" fill="#FDE68A"/>
</svg>
