<svg width="301" height="108" viewBox="0 0 301 108" fill="none" xmlns="http://www.w3.org/2000/svg">
<path d="M196.808 76.0077C205.603 66.855 186.879 54.2028 153.119 48.2805C136.665 45.3194 159.644 39.3971 154.538 35.3591C148.013 29.9752 98.3655 17.323 102.337 14.0927C94.9611 2.24809 57.2294 8.978 57.2294 8.978C28.576 -2.59741 19.7813 -0.71305 17.5118 5.47845C18.0792 9.78558 18.9303 14.0927 17.5118 16.7847C18.6466 24.5913 17.2281 26.7449 7.01497 25.6681C0.489932 24.8605 -1.21225 25.9373 3.8943 33.4748C9.00085 41.0122 20.065 46.6654 45.0304 52.3185C53.825 54.2028 56.3783 59.3176 63.187 60.1252C69.7121 60.9327 73.4001 54.2028 78.5067 54.2028C100.635 55.0104 110.281 58.51 110.281 64.4323C110.281 88.3907 144.324 77.3537 176.382 84.8911C199.362 90.2751 222.909 105.619 255.534 107.234C270.57 108.042 287.875 107.504 300.925 106.427C265.179 98.0817 189.716 83.5452 196.808 76.0077Z" fill="url(#paint0_linear_52_3639)"/>
<defs>
<linearGradient id="paint0_linear_52_3639" x1="0.827532" y1="53.9218" x2="300.475" y2="53.9218" gradientUnits="userSpaceOnUse">
<stop stop-color="white"/>
<stop offset="0.1529" stop-color="#F8FCFE"/>
<stop offset="0.3722" stop-color="#E5F2FC"/>
<stop offset="0.6315" stop-color="#C6E3F7"/>
<stop offset="0.9192" stop-color="#9BCEF2"/>
<stop offset="1" stop-color="#8EC7F0"/>
</linearGradient>
</defs>
</svg>
