<svg width="689" height="295" viewBox="0 0 689 295" fill="none" xmlns="http://www.w3.org/2000/svg">
<path d="M92.2016 204.062C131.636 207.023 142.132 221.021 175.892 230.174C209.936 238.788 208.518 246.326 226.958 245.249C245.682 243.903 257.597 248.21 292.492 254.402C326.819 260.862 399.729 295.05 449.66 287.782C498.456 280.514 495.052 293.435 539.592 294.243C560.302 294.781 575.905 294.512 587.253 294.243C581.296 292.628 574.487 290.474 567.962 287.782C549.805 280.783 484.271 272.976 456.753 262.478C428.95 252.517 426.681 260.593 418.453 250.364C414.198 244.711 417.602 242.019 426.964 241.211C426.397 240.673 425.83 240.134 425.262 239.327C416.184 228.021 440.866 228.828 477.463 231.789C513.776 235.02 549.805 230.982 584.133 239.327C609.949 245.518 633.496 248.21 667.54 246.326C659.029 243.903 651.936 241.48 656.475 239.058C659.029 237.712 665.27 236.366 672.93 235.02C665.27 232.866 659.312 230.443 663.568 228.29C666.972 226.405 676.902 224.521 688.533 222.637C673.214 223.983 655.908 225.059 639.17 223.175C602.573 218.868 576.757 207.023 527.961 205.408C479.165 203.524 442 198.678 421.574 180.373C401.432 162.337 359.728 165.298 341.572 154.799C323.699 144.57 337.883 127.88 313.485 122.765C289.088 117.65 301.854 120.342 282.846 100.96C264.122 81.309 251.072 93.1536 227.525 86.6929C204.262 79.9631 211.071 75.9251 205.964 63.8113C200.858 51.6975 173.623 46.0444 158.587 34.469C143.551 22.8936 137.309 18.8556 134.189 1.89632C131.068 -15.063 99.0103 -12.371 96.4571 -29.5996C94.1875 -46.8281 74.045 -62.1722 62.4134 -80.2083C51.0655 -98.2444 40.8524 -98.7828 34.0437 -112.243C28.6534 -122.472 10.2131 -134.586 0 -140.777V192.756C0.567395 193.025 0.851092 193.294 1.41849 193.564C50.4981 216.714 52.7677 200.293 92.2016 204.062Z" fill="url(#paint0_linear_52_3630)"/>
<defs>
<linearGradient id="paint0_linear_52_3630" x1="351.147" y1="6.50549" x2="303.625" y2="258.705" gradientUnits="userSpaceOnUse">
<stop offset="0.0984456" stop-color="white"/>
<stop offset="0.355" stop-color="#F1F9FF"/>
<stop offset="0.587295" stop-color="#DDF1FF"/>
<stop offset="0.8341" stop-color="#CEEAFF"/>
<stop offset="0.90625" stop-color="#C0E4FF"/>
<stop offset="1" stop-color="#C0E4FF"/>
</linearGradient>
</defs>
</svg>
