<svg width="720" height="339" viewBox="0 0 720 339" fill="none" xmlns="http://www.w3.org/2000/svg">
<path d="M719.173 318.003C714.066 312.08 704.42 306.158 690.519 302.389C685.413 301.043 689.952 291.621 691.37 284.622C691.086 284.622 690.803 284.353 690.519 284.353C687.682 283.546 687.966 279.777 689.101 275.739C678.604 260.664 678.32 263.894 675.483 255.28C672.93 247.473 663.568 248.55 661.298 242.897C656.192 230.783 657.894 227.553 628.957 229.976C600.02 232.398 602.857 228.36 605.41 221.092C607.963 213.824 588.672 218.4 579.593 202.787C570.799 187.174 543.848 202.248 530.798 190.942C517.747 179.636 503.846 200.095 480.299 188.52C456.753 176.944 442 218.669 427.532 203.864C412.779 189.058 406.822 196.326 405.971 184.751C405.12 172.906 411.361 168.868 395.19 168.868C377.034 168.868 382.708 166.715 386.963 154.87C387.53 153.524 387.814 152.178 387.814 150.563C380.154 149.755 382.424 147.333 385.545 140.603C382.708 132.796 379.02 124.72 383.842 117.721C382.14 113.145 381.005 108.838 381.857 104.53C377.885 102.915 372.778 101.3 368.806 98.339C358.593 91.0707 365.118 85.9559 352.636 80.3028C340.153 74.6497 327.954 78.1493 316.606 82.1872C305.542 86.2252 302.138 87.3019 279.158 81.918C256.462 76.5341 250.221 102.108 250.221 102.108C250.221 102.108 250.221 102.108 249.937 102.377C256.462 105.069 263.271 106.415 256.462 113.952C254.193 116.375 254.76 119.605 256.179 122.836C258.732 124.182 260.15 125.528 259.299 128.22C261.285 131.181 262.987 133.604 261.853 134.142C261.001 134.68 258.732 134.142 255.895 133.065C252.207 139.795 264.406 150.563 261.853 151.909C257.597 154.332 218.447 133.873 216.177 132.527C209.085 128.489 194.616 113.683 203.127 109.376C204.262 108.838 205.397 107.492 205.964 105.876C201.141 100.223 198.021 94.0318 203.127 91.3399C203.411 91.3399 203.695 91.0707 203.695 90.8015C203.127 90.2631 202.56 89.7247 201.709 89.4555C190.361 83.5332 196.886 75.1881 188.659 66.8431C180.715 58.498 183.552 54.7293 151.211 47.7302C118.869 40.7311 122.841 25.387 106.67 27.0021C90.4994 28.6173 87.6624 29.1557 73.1939 35.078C58.7253 41.0003 50.7818 2.77451 40.285 0.890137C34.0437 0.890137 14.1849 0.89017 0 1.42856V253.396C1.70218 255.011 3.68806 256.357 5.95764 257.703C43.9731 281.93 64.1156 285.161 194.9 305.62C325.684 326.078 288.236 324.463 384.693 330.924C446.823 335.231 481.151 336.577 512.357 339H650.801C677.469 333.078 700.165 325.002 713.215 320.964C715.484 320.425 717.754 319.349 719.173 318.003Z" fill="url(#paint0_linear_52_3586)"/>
<defs>
<linearGradient id="paint0_linear_52_3586" x1="373.303" y1="116.684" x2="317.497" y2="312.121" gradientUnits="userSpaceOnUse">
<stop stop-color="white"/>
<stop offset="0.1529" stop-color="#F8FCFE"/>
<stop offset="0.3722" stop-color="#E5F2FC"/>
<stop offset="0.6315" stop-color="#C6E3F7"/>
<stop offset="0.9192" stop-color="#9BCEF2"/>
<stop offset="1" stop-color="#8EC7F0"/>
</linearGradient>
</defs>
</svg>
