<svg width="157" height="110" viewBox="0 0 157 110" fill="none" xmlns="http://www.w3.org/2000/svg">
<path d="M60.5516 84.9498C63.6009 78.2551 61.6561 72.8364 57.725 67.806C57.083 66.9844 56.2404 66.2715 55.3734 65.6756C53.6883 64.5179 52.8432 64.5972 51.1806 65.8153C50.9204 66.0056 50.689 66.2634 50.3987 66.3809C47.1243 67.7115 40.7465 65.1397 39.4273 61.9481C38.4729 59.6403 38.7836 57.3231 39.4916 55.0356C40.2813 52.4823 39.3625 51.2339 36.6914 51.7576C34.6295 52.1621 32.9812 51.5561 31.3642 50.5613C30.1111 49.7907 28.9224 48.9101 27.75 48.0202C26.025 46.7111 25.1654 44.8873 24.8451 42.8161C24.6219 41.3722 24.9293 40.1704 26.2851 39.2298C28.1186 37.9579 28.0814 36.8757 26.1377 35.762C21.7731 33.2619 19.843 26.8574 23.8513 21.7535C26.3132 18.6186 29.2717 16.1192 33.7153 16.2423C35.0676 16.2795 35.7466 15.5836 35.6847 14.6051C35.6038 13.3357 34.6647 12.9581 33.6194 13.0064C32.2396 13.07 30.8151 13.1499 29.5045 13.5348C23.0031 15.4433 17.8965 22.5285 18.3658 28.8036C18.6005 31.9423 20.0514 34.5267 22.0494 36.8768C22.2564 37.1203 22.4507 37.375 22.6277 37.5963C20.3817 43.1487 21.7596 47.7305 26.5868 51.3292C29.3027 53.3544 32.1925 54.9714 35.6521 55.5792C35.6095 56.667 35.5758 57.5443 35.5398 58.4217C35.32 63.7476 38.1279 67.6766 43.3253 69.1095C46.771 70.0596 50.2446 70.5449 53.6975 68.5385C57.2726 71.5054 58.9216 75.3774 58.7312 79.8774C58.5763 83.5339 54.4014 87.1226 50.5642 87.2622C49.5453 87.2992 48.7484 87.4861 48.5539 88.5769C48.3683 89.6183 49.0193 90.2893 49.8631 90.697C50.3539 90.9338 50.9878 91.0462 51.528 90.9814C53.3895 90.7587 55.3302 90.6948 57.0751 90.1009C63.411 87.943 68.4643 84.1593 71.6061 78.1547C71.8229 77.7398 72.0799 77.3451 72.377 76.8407C81.3516 83.0592 90.6634 83.5736 100.616 79.0244C100.875 79.1645 101.368 79.4213 101.85 79.6968C106.767 82.5009 111.667 82.2032 116.251 79.2114C122.59 75.0741 125.063 68.594 123.477 61.2316C123.307 60.4404 123.089 59.6585 122.838 58.6495C123.549 58.4595 124.219 58.2641 124.898 58.102C133.587 56.0287 139.602 48.0613 139.117 39.2605C138.745 32.5093 132.651 24.5471 126.213 22.4267C124.444 21.8438 122.66 21.7682 120.932 22.5537C119.638 23.1426 119.108 24.1111 119.585 25.0148C120.164 26.1088 121.092 26.1366 122.105 25.6693C123.413 25.0654 124.664 25.3777 125.906 25.8951C131.125 28.0699 136.662 35.3716 135.744 41.9948C134.742 49.2267 129.232 54.1361 123.054 55.0268C121.798 55.2078 120.46 54.8766 119.164 54.7433C118.276 54.6521 117.494 54.7949 117.085 55.6505C116.672 56.5144 117.052 57.235 117.723 57.8112C121.318 60.8942 120.946 64.8966 120.121 68.8169C119.405 72.2143 117.112 74.7209 114.223 76.5993C111.373 78.4529 108.237 78.7073 105.034 77.609C103.903 77.2218 102.886 76.6787 102.421 75.2862C101.871 73.6371 100.46 73.4091 99.5005 74.8077C98.1181 76.8221 96.1032 77.4197 93.9206 77.9653C88.9891 79.1983 84.1866 78.9821 79.4661 77.0038C76.5455 75.7803 73.8443 74.3276 72.3305 71.3571C72.1217 70.947 71.7198 70.4768 71.313 70.3589C70.7463 70.1952 70.0043 70.1557 69.4937 70.3917C68.7381 70.7406 68.5745 71.5863 68.9506 72.2934C69.8996 74.0767 69.132 75.611 68.3759 77.1432C66.7416 80.457 63.9349 82.6186 60.5516 84.9498Z" fill="#F97316"/>
<path d="M152.174 49.2071C152.183 48.6676 152.266 47.6179 152.199 46.5769C152.145 45.7416 151.517 45.1212 150.727 45.2929C150.145 45.4193 149.677 46.0892 149.186 46.5472C149.097 46.6304 149.137 46.8576 149.134 47.0192C149.052 51.6334 146.487 54.6837 142.744 56.991C142.189 57.3331 141.595 57.6252 141.087 58.0245C140.428 58.5427 140.213 59.3238 140.775 59.9416C141.14 60.3426 141.862 60.4546 142.446 60.6156C142.637 60.6675 142.91 60.4884 143.124 60.3755C147.574 58.0338 150.883 54.7538 152.174 49.2071Z" fill="#F97316"/>
<path d="M131.929 78.2799C130.627 78.1303 130.158 78.716 129.707 79.6211C128.887 81.265 128.014 82.9195 126.905 84.3769C125.601 86.0903 123.745 87.151 121.594 87.6358C121.196 87.7255 120.668 87.6969 120.429 87.9416C119.968 88.4137 119.382 89.0343 119.37 89.6065C119.349 90.5486 120.175 90.9203 121.102 90.9032C121.264 90.9 121.425 90.8598 121.588 90.8404C126.225 90.2942 131.841 85.1612 132.696 80.6745C132.771 80.2807 132.91 79.8206 132.776 79.485C132.583 79.0003 132.167 78.6021 131.929 78.2799Z" fill="#F97316"/>
<path d="M37.7625 78.4113C38.156 78.3574 39.116 78.4143 39.8741 78.0561C40.396 77.8097 40.8965 77.0073 40.9408 76.4169C41.0007 75.6197 40.2655 75.0829 39.4426 75.1747C36.2674 75.5297 34.6886 73.5193 33.3761 71.1845C32.7043 69.9892 32.242 68.6801 31.6778 67.425C31.4467 66.9103 31.3098 66.283 30.9222 65.9291C30.5603 65.5988 29.8072 65.3022 29.4374 65.4628C28.9501 65.6748 28.3918 66.3204 28.3441 66.8261C27.9814 70.6555 33.4327 77.6079 37.7625 78.4113Z" fill="#F97316"/>
<path d="M19.2576 58.3894C19.6172 58.1692 20.4211 57.9192 20.8051 57.3779C21.2693 56.7228 20.9386 55.8835 20.1788 55.5384C17.0061 54.0979 16.2128 51.2108 15.5063 48.2533C15.356 47.6244 15.3613 46.8943 15.0205 46.3929C14.7114 45.9387 13.9971 45.4493 13.5172 45.4977C13.0316 45.5461 12.3421 46.1633 12.2115 46.655C11.3505 49.9031 15.1883 56.9596 18.3439 58.1026C18.4966 58.1579 18.6551 58.2011 19.2576 58.3894Z" fill="#F97316"/>
<path d="M12.7814 17.8566C12.9803 18.1795 13.2229 19.0222 13.7797 19.3697C14.5683 19.8616 15.4179 19.4387 15.7516 18.5626C16.9878 15.3167 19.5755 13.9257 22.8234 13.3894C23.0627 13.3501 23.3031 13.2938 23.5299 13.2111C24.326 12.9205 24.6985 12.3146 24.5714 11.5121C24.4393 10.6776 23.8122 10.3416 22.9943 10.2706C19.2 9.93918 13.6969 13.8073 12.7814 17.8566Z" fill="#F97316"/>
</svg>
